<svg xmlns="http://www.w3.org/2000/svg" viewBox="0 0 512 512"><defs><style>.cls-1{fill:#864538;}.cls-2{fill:#d9b37f;}.cls-3{fill:#efc788;}.cls-4{fill:none;stroke:#fff;stroke-linecap:round;stroke-miterlimit:10;stroke-width:10px;}.cls-5{fill:#2b3260;}.cls-6{fill:#37417d;}.cls-7{fill:#fff;}</style></defs><title>Artificial Intelligence</title><g id="BULINE"><circle class="cls-1" cx="256" cy="256" r="256"/></g><g id="Icons"><path class="cls-2" d="M408.88,203.3A156.29,156.29,0,0,1,384,288.15a114.71,114.71,0,0,0-17.83,62.07V458.38a22.41,22.41,0,0,1-22.42,22.41H237.26a22.41,22.41,0,0,1-22.42-22.41V427.12a14.26,14.26,0,0,0-14.25-14.25H167.28a72.78,72.78,0,0,1-72.75-72.75v-6.05a15.69,15.69,0,0,0-15.69-15.69H69.57a8.6,8.6,0,0,1-7.22-13.26l24.8-38.38a46,46,0,0,0,7.38-25V205c0-86.88,69.76-158.59,156.63-158.89A157.09,157.09,0,0,1,408.88,203.3Z"/><path class="cls-3" d="M408.88,203.3A156.29,156.29,0,0,1,384,288.15a114.71,114.71,0,0,0-17.83,62.07V458.38a22.41,22.41,0,0,1-22.42,22.41H237.26a22.41,22.41,0,0,1-22.42-22.41V427.12a14.26,14.26,0,0,0-14.25-14.25H167.28a72.46,72.46,0,0,1-52.35-22.25l20.76-32.12a46,46,0,0,0,7.38-25V296.77c0-86.87,69.76-158.59,156.62-158.89a156.56,156.56,0,0,1,107.44,42A156.61,156.61,0,0,1,408.88,203.3Z"/><line class="cls-4" x1="251.52" y1="169.9" x2="251.52" y2="128.89"/><line class="cls-4" x1="284" y1="169.3" x2="284" y2="128.29"/><line class="cls-4" x1="216.14" y1="169.3" x2="216.14" y2="128.29"/><line class="cls-4" x1="251.52" y1="318.53" x2="251.52" y2="277.52"/><line class="cls-4" x1="284" y1="317.92" x2="284" y2="276.91"/><line class="cls-4" x1="216.14" y1="317.92" x2="216.14" y2="276.91"/><line class="cls-4" x1="303.08" y1="226.93" x2="344.09" y2="226.93"/><line class="cls-4" x1="303.69" y1="259.4" x2="344.7" y2="259.4"/><line class="cls-4" x1="303.69" y1="191.55" x2="344.7" y2="191.55"/><line class="cls-4" x1="158.05" y1="226.93" x2="199.06" y2="226.93"/><line class="cls-4" x1="158.66" y1="259.4" x2="199.67" y2="259.4"/><line class="cls-4" x1="158.66" y1="191.55" x2="199.67" y2="191.55"/><rect class="cls-5" x="193.95" y="167.29" width="116.37" height="116.37" rx="16.46"/><rect class="cls-6" x="206.85" y="180.2" width="90.56" height="90.56" rx="16.46"/><path class="cls-7" d="M262.88,246.68l-14.14-45.07a7.89,7.89,0,0,0-7.53-5.53h-6.59a7.88,7.88,0,0,0-7.53,5.56l-13.92,45.07a4.23,4.23,0,0,0,4.05,5.48h5.1a4.23,4.23,0,0,0,4.05-3l2.46-8.05h15l2.3,8a4.22,4.22,0,0,0,4.07,3.07h8.61A4.24,4.24,0,0,0,262.88,246.68Zm-31.12-17.79,4.53-16.29,4.54,16.29Z"/><path class="cls-7" d="M281.61,196.08h-6.45a5.38,5.38,0,0,0-5.38,5.38v45.35a5.38,5.38,0,0,0,5.38,5.38h6.45a5.38,5.38,0,0,0,5.39-5.38V201.46A5.38,5.38,0,0,0,281.61,196.08Z"/></g></svg>