<?xml version="1.0" encoding="utf-8"?>
<!-- Generator: Adobe Illustrator 18.0.0, SVG Export Plug-In . SVG Version: 6.00 Build 0)  -->
<!DOCTYPE svg PUBLIC "-//W3C//DTD SVG 1.1//EN" "http://www.w3.org/Graphics/SVG/1.1/DTD/svg11.dtd">
<svg version="1.1" id="Icon_Set" xmlns="http://www.w3.org/2000/svg" xmlns:xlink="http://www.w3.org/1999/xlink" x="0px" y="0px"
	 viewBox="0 0 256 256" style="enable-background:new 0 0 256 256;" xml:space="preserve">
<style type="text/css">
	.st0{fill:#4C4372;}
	.st1{fill:#F0C48A;}
	.st2{fill:#FD919E;}
	.st3{fill:#D3E6F8;}
	.st4{fill:#A4CFF2;}
	.st5{fill:#FFFFFF;}
	.st6{fill:#7BABF1;}
	.st7{fill:#E8677D;}
</style>
<g>
	<g>
		<g>
			<circle class="st1" cx="128" cy="128" r="103.5"/>
		</g>
	</g>
	<g>
		<rect x="57.073" y="118.045" class="st4" width="141.855" height="82.854"/>
	</g>
	<g>
		<rect x="185.214" y="118.045" class="st6" width="13.714" height="82.854"/>
	</g>
	<g>
		<path class="st0" d="M198.928,203.899H57.073c-1.657,0-3-1.343-3-3v-82.854c0-1.657,1.343-3,3-3h141.855c1.657,0,3,1.343,3,3
			v82.854C201.928,202.557,200.585,203.899,198.928,203.899z M60.073,197.899h135.855v-76.854H60.073V197.899z"/>
	</g>
	<g>
		<g>
			<path class="st5" d="M128.409,187.859H71.604v-78.936h44.772c6.646,0,12.033,5.387,12.033,12.032V187.859z"/>
		</g>
		<g>
			<path class="st5" d="M185.214,187.859h-56.805v-66.903c0-6.646,5.388-12.032,12.032-12.032h44.773V187.859z"/>
		</g>
	</g>
	<g>
		<path class="st0" d="M116.092,137.139H84.215c-1.657,0-3-1.343-3-3s1.343-3,3-3h31.876c1.657,0,3,1.343,3,3
			S117.749,137.139,116.092,137.139z"/>
	</g>
	<g>
		<path class="st0" d="M116.092,150.415H84.215c-1.657,0-3-1.343-3-3s1.343-3,3-3h31.876c1.657,0,3,1.343,3,3
			S117.749,150.415,116.092,150.415z"/>
	</g>
	<g>
		<path class="st0" d="M116.092,163.691H84.215c-1.657,0-3-1.343-3-3s1.343-3,3-3h31.876c1.657,0,3,1.343,3,3
			S117.749,163.691,116.092,163.691z"/>
	</g>
	<g>
		<path class="st0" d="M116.092,176.968H84.215c-1.657,0-3-1.343-3-3s1.343-3,3-3h31.876c1.657,0,3,1.343,3,3
			S117.749,176.968,116.092,176.968z"/>
	</g>
	<g>
		<rect x="174.721" y="108.924" class="st3" width="10.493" height="78.936"/>
	</g>
	<g>
		<path class="st0" d="M128.409,190.859H71.604c-1.657,0-3-1.343-3-3v-78.936c0-1.657,1.343-3,3-3h44.772
			c8.289,0,15.033,6.743,15.033,15.032v66.903C131.409,189.517,130.066,190.859,128.409,190.859z M74.604,184.859h50.805v-63.903
			c0-4.98-4.052-9.032-9.033-9.032H74.604V184.859z"/>
	</g>
	<g>
		<path class="st0" d="M185.214,190.859h-56.805c-1.657,0-3-1.343-3-3v-66.903c0-8.289,6.743-15.032,15.032-15.032h44.772
			c1.657,0,3,1.343,3,3v78.936C188.214,189.517,186.871,190.859,185.214,190.859z M131.409,184.859h50.805v-72.936h-41.772
			c-4.98,0-9.032,4.052-9.032,9.032V184.859z"/>
	</g>
	<g>
		<path class="st0" d="M172.75,137.139h-31.877c-1.657,0-3-1.343-3-3s1.343-3,3-3h31.877c1.657,0,3,1.343,3,3
			S174.407,137.139,172.75,137.139z"/>
	</g>
	<g>
		<path class="st0" d="M172.75,150.415h-31.877c-1.657,0-3-1.343-3-3s1.343-3,3-3h31.877c1.657,0,3,1.343,3,3
			S174.407,150.415,172.75,150.415z"/>
	</g>
	<g>
		<path class="st0" d="M172.75,163.691h-31.877c-1.657,0-3-1.343-3-3s1.343-3,3-3h31.877c1.657,0,3,1.343,3,3
			S174.407,163.691,172.75,163.691z"/>
	</g>
	<g>
		<path class="st0" d="M172.75,176.968h-31.877c-1.657,0-3-1.343-3-3s1.343-3,3-3h31.877c1.657,0,3,1.343,3,3
			S174.407,176.968,172.75,176.968z"/>
	</g>
	<g>
		<path class="st2" d="M165.589,97.756V87.624h-9.718c-0.732-4.052-2.322-7.804-4.581-11.06l6.872-6.872l-7.165-7.164l-6.871,6.872
			c-3.257-2.26-7.008-3.85-11.06-4.581v-9.719h-10.132v9.719c-4.052,0.731-7.804,2.321-11.06,4.581l-6.872-6.872l-7.164,7.164
			l6.872,6.872c-2.259,3.256-3.849,7.008-4.581,11.06h-9.719v10.132h9.718c0.732,4.052,2.322,7.804,4.581,11.06l-6.872,6.872
			l7.164,7.164l6.872-6.871c3.256,2.258,7.007,3.849,11.06,4.58v9.719h10.132v-9.719c4.052-0.731,7.803-2.322,11.06-4.58
			l6.871,6.871l7.165-7.164l-6.872-6.872c2.259-3.256,3.849-7.008,4.581-11.06H165.589z M128,107.618
			c-8.245,0-14.928-6.684-14.928-14.929c0-8.244,6.684-14.928,14.928-14.928c8.245,0,14.929,6.684,14.929,14.928
			C142.929,100.935,136.245,107.618,128,107.618z"/>
	</g>
	<g>
		<path class="st0" d="M133.066,133.279h-10.132c-1.657,0-3-1.343-3-3v-7.314c-2.682-0.709-5.237-1.768-7.638-3.163l-5.172,5.171
			c-1.171,1.172-3.071,1.172-4.242,0l-7.165-7.164c-1.172-1.171-1.172-3.07,0-4.242l5.172-5.172c-1.396-2.4-2.454-4.955-3.164-7.639
			h-7.314c-1.657,0-3-1.343-3-3V87.624c0-1.657,1.343-3,3-3h7.314c0.709-2.684,1.768-5.238,3.164-7.639l-5.172-5.172
			c-1.171-1.172-1.171-3.071,0-4.242l7.165-7.164c0.563-0.563,1.326-0.879,2.121-0.879l0,0c0.796,0,1.559,0.316,2.122,0.879
			l5.171,5.172c2.4-1.396,4.955-2.455,7.639-3.164v-7.314c0-1.657,1.343-3,3-3h10.132c1.657,0,3,1.343,3,3v7.314
			c2.683,0.709,5.238,1.768,7.639,3.164l5.171-5.172c1.125-1.125,3.117-1.125,4.242,0l7.165,7.164
			c0.563,0.563,0.879,1.325,0.879,2.121s-0.316,1.559-0.879,2.121l-5.172,5.172c1.396,2.4,2.454,4.955,3.164,7.639h7.313
			c1.657,0,3,1.343,3,3v10.132c0,1.657-1.343,3-3,3h-7.313c-0.71,2.684-1.769,5.238-3.164,7.639l5.172,5.172
			c0.563,0.563,0.879,1.325,0.879,2.121s-0.316,1.559-0.879,2.121l-7.165,7.164c-1.172,1.172-3.07,1.172-4.242,0l-5.172-5.171
			c-2.401,1.396-4.956,2.454-7.638,3.163v7.314C136.066,131.937,134.724,133.279,133.066,133.279z M125.934,127.279h4.132v-6.719
			c0-1.451,1.039-2.694,2.467-2.952c3.57-0.645,6.896-2.021,9.884-4.094c1.19-0.826,2.804-0.684,3.83,0.345l4.75,4.75l2.922-2.922
			l-4.75-4.751c-1.026-1.025-1.171-2.639-0.344-3.831c2.07-2.984,3.448-6.31,4.094-9.883c0.258-1.429,1.501-2.467,2.952-2.467h6.718
			v-4.132h-6.718c-1.451,0-2.694-1.038-2.952-2.467c-0.646-3.573-2.023-6.898-4.094-9.883c-0.827-1.192-0.683-2.806,0.344-3.831
			l4.75-4.751l-2.922-2.922l-4.75,4.751c-1.025,1.025-2.64,1.172-3.831,0.344c-2.985-2.071-6.311-3.449-9.883-4.094
			c-1.428-0.258-2.467-1.501-2.467-2.952v-6.719h-4.132v6.719c0,1.451-1.039,2.694-2.467,2.952
			c-3.573,0.646-6.897,2.022-9.882,4.094c-1.192,0.827-2.805,0.684-3.832-0.344l-4.75-4.751l-2.922,2.922l4.75,4.751
			c1.026,1.025,1.17,2.639,0.343,3.831c-2.07,2.984-3.448,6.31-4.093,9.883c-0.258,1.428-1.501,2.467-2.952,2.467h-6.719v4.132
			h6.718c1.451,0,2.694,1.038,2.952,2.467c0.646,3.573,2.023,6.898,4.094,9.883c0.827,1.192,0.683,2.806-0.343,3.831l-4.75,4.751
			l2.922,2.922l4.75-4.75c1.025-1.025,2.639-1.172,3.831-0.344c2.987,2.071,6.312,3.448,9.883,4.093
			c1.428,0.258,2.467,1.501,2.467,2.952V127.279z M128,110.618c-9.886,0-17.928-8.043-17.928-17.929S118.114,74.762,128,74.762
			s17.929,8.042,17.929,17.928S137.886,110.618,128,110.618z M128,80.762c-6.577,0-11.928,5.351-11.928,11.928
			s5.351,11.929,11.928,11.929s11.929-5.352,11.929-11.929S134.577,80.762,128,80.762z"/>
	</g>
</g>
</svg>
